<svg width="18" height="18" viewBox="0 0 18 18" fill="none" xmlns="http://www.w3.org/2000/svg">
<g clip-path="url(#clip0_11_11541)">
<path d="M9.25 7.825L10.175 8.75L15.6 3.325L14.675 2.4L9.25 7.825ZM2 16H2.925L8.75 10.175L7.825 9.25L2 15.075V16ZM10.875 10.875L7.125 7.125L11.3 2.95L10.575 2.225L5.1 7.7L3.7 6.3L9.15 0.825C9.55 0.425 10.0208 0.225 10.5625 0.225C11.1042 0.225 11.575 0.425 11.975 0.825L12.7 1.55L13.95 0.3C14.15 0.1 14.3875 0 14.6625 0C14.9375 0 15.175 0.1 15.375 0.3L17.7 2.625C17.9 2.825 18 3.0625 18 3.3375C18 3.6125 17.9 3.85 17.7 4.05L10.875 10.875ZM3.75 18H0V14.25L7.125 7.125L10.875 10.875L3.75 18Z" fill="#292D32"/>
</g>
<defs>
<clipPath id="clip0_11_11541">
<rect width="18" height="18" fill="white"/>
</clipPath>
</defs>
</svg>
